#!OML:ASF I:\Actors\actors\Patient Classification 2\Patient 1\Session 1\actor1.ASF
:FULLY-SPECIFIED
:DEGREES
670
root -0.647022 18.6516 5.55081 -0.647251 -2.55522 -1.39507
lowerback 1.78247 1.35991 0.0549293
upperback -1.02235 1.82118 0.303817
thorax -2.05456 0.9107 0.216074
lowerneck -10.7769 -2.68847 -1.36302
upperneck 25.0821 -4.08482 2.19569
head 9.78474 -1.78291 0.524295
rclavicle 3.2023e-015 1.16289e-014
rhumerus -48.5248 -5.13733 -86.0619
rradius 47.1246
rwrist 13.7507
rhand -10.1226 -29.5357
rfingers 7.12502
rthumb 15.8656 -58.9057
lclavicle 3.2023e-015 1.16289e-014
lhumerus -41.7035 -1.49128 91.909
lradius 45.3785
lwrist -1.85465
lhand -4.04786 -24.3517
lfingers 7.12502
lthumb 21.708 4.45118
rfemur 0 0 0
rtibia 0
rfoot 0 0
rtoes 0
lfemur -1.39707 -5.10593 -13.3195
ltibia 21.1721
lfoot -24.1852 16.8379
ltoes -54.7699
671
root -0.647262 18.6516 5.55294 -0.632378 -2.58352 -1.38978
lowerback 1.78311 1.38011 0.0496045
upperback -1.05915 1.84772 0.282826
thorax -2.09228 0.923864 0.19601
lowerneck -10.7851 -2.69092 -1.37899
upperneck 25.1818 -4.10739 2.26996
head 9.82464 -1.7855 0.549834
rclavicle 8.61607e-015 -6.95746e-016
rhumerus -48.3699 -4.87598 -86.3454
rradius 46.8474
rwrist 13.9816
rhand -10.0658 -29.6319
rfingers 7.12502
rthumb 15.9203 -58.9976
lclavicle 8.61607e-015 -6.95746e-016
lhumerus -41.629 -1.74815 92.1079
lradius 45.0832
lwrist -2.04324
lhand -4.06402 -24.5406
lfingers 7.12502
lthumb 21.6925 4.26407
rfemur 0 0 0
rtibia 0
rfoot 0 0
rtoes 0
lfemur -1.39817 -5.14369 -13.3315
ltibia 21.1758
lfoot -24.2556 16.9017
ltoes -54.7877
672
root -0.647477 18.6531 5.55527 -0.567551 -2.59357 -1.36169
lowerback 1.74363 1.38892 0.00116849
upperback -1.11113 1.85814 0.275477
thorax -2.1248 0.929732 0.215416
lowerneck -10.7785 -2.69581 -1.46633
upperneck 25.2693 -4.14019 2.4291
head 9.86126 -1.79034 0.616142
rclavicle 1.7549e-014 -3.67752e-015
rhumerus -48.2157 -4.67408 -86.5413
rradius 46.4771
rwrist 14.3297
rhand -10.0955 -29.7395
rfingers 7.12502
rthumb 15.8917 -59.1074
lclavicle 1.7549e-014 -3.67752e-015
lhumerus -41.5299 -1.92376 92.2896
lradius 44.6732
lwrist -2.31246
lhand -4.0829 -24.6297
lfingers 7.12502
lthumb 21.6743 4.17708
rfemur 0 0 0
rtibia 0
rfoot 0 0
rtoes 0
lfemur -1.44737 -5.17582 -13.3653
ltibia 21.1574
lfoot -24.2538 16.9442
ltoes -54.793
673
root -0.646952 18.6548 5.5596 -0.511974 -2.60109 -1.33248
lowerback 1.69362 1.39188 -0.0412775
upperback -1.15616 1.86118 0.282808
thorax -2.14456 0.931972 0.247165
lowerneck -10.7632 -2.69216 -1.57322
upperneck 25.3145 -4.14434 2.54585
head 9.87983 -1.789 0.674651
rclavicle 2.01456e-014 3.97569e-015
rhumerus -48.0794 -4.49161 -86.6723
rradius 46.0576
rwrist 14.6742
rhand -10.2462 -29.5659
rfingers 7.12502
rthumb 15.7465 -58.9454
lclavicle 2.01456e-014 3.97569e-015
lhumerus -41.4078 -2.01412 92.4417
lradius 44.1285
lwrist -2.66755
lhand -3.97449 -24.6419
lfingers 7.12502
lthumb 21.7785 4.15281
rfemur 0 0 0
rtibia 0
rfoot 0 0
rtoes 0
lfemur -1.47482 -5.20802 -13.4077
ltibia 21.1239
lfoot -24.2485 16.9915
ltoes -54.7626
674
root -0.645487 18.6552 5.56466 -0.477294 -2.61587 -1.29625
lowerback 1.64767 1.3982 -0.0590355
upperback -1.18369 1.86907 0.277656
thorax -2.14745 0.936174 0.252333
lowerneck -10.7763 -2.68999 -1.6104
upperneck 25.3543 -4.13506 2.54787
head 9.8973 -1.78743 0.682522
rclavicle -7.32397e-015 -5.56597e-015
rhumerus -47.9491 -4.3171 -86.7997
rradius 45.6129
rwrist 15.0109
rhand -10.3397 -29.3484
rfingers 7.12502
rthumb 15.6565 -58.7349
lclavicle -7.32397e-015 -5.56597e-015
lhumerus -41.2283 -1.97276 92.511
lradius 43.4284
lwrist -3.18534
lhand -3.86568 -24.7105
lfingers 7.12502
lthumb 21.8829 4.07203
rfemur 0 0 0
rtibia 0
rfoot 0 0
rtoes 0
lfemur -1.46755 -5.24954 -13.4625
ltibia 21.0821
lfoot -24.3024 17.0387
ltoes -54.7075
675
root -0.644623 18.6552 5.56698 -0.440769 -2.64912 -1.20647
lowerback 1.63138 1.42125 -0.122188
upperback -1.21335 1.89757 0.243656
thorax -2.16982 0.951112 0.25178
lowerneck -10.8078 -2.70724 -1.60927
upperneck 25.4232 -4.14736 2.49297
head 9.92711 -1.79811 0.661167
rclavicle -2.65005e-014 -4.17448e-015
rhumerus -47.8161 -4.17912 -86.926
rradius 45.0926
rwrist 15.3858
rhand -10.3735 -29.261
rfingers 7.12502
rthumb 15.624 -58.65
lclavicle -2.65005e-014 -4.17448e-015
lhumerus -41.0359 -1.91389 92.545
lradius 42.6387
lwrist -3.79475
lhand -3.83932 -24.72
lfingers 7.12502
lthumb 21.9083 4.05962
rfemur 0 0 0
rtibia 0
rfoot 0 0
rtoes 0
lfemur -1.47406 -5.30602 -13.5737
ltibia 21.0514
lfoot -24.3641 17.1049
ltoes -54.6875
676
root -0.64459 18.6559 5.56824 -0.376693 -2.67377 -1.18123
lowerback 1.60861 1.43144 -0.126794
upperback -1.24362 1.91095 0.235682
thorax -2.18807 0.95784 0.245845
lowerneck -10.8536 -2.71018 -1.65936
upperneck 25.4733 -4.13886 2.48135
head 9.95467 -1.79923 0.665884
rclavicle 9.81499e-016 1.0635e-014
rhumerus -47.6545 -3.96337 -87.0599
rradius 44.4938
rwrist 15.7414
rhand -10.5316 -29.3136
rfingers 7.12502
rthumb 15.4717 -58.7145
lclavicle 9.81499e-016 1.0635e-014
lhumerus -40.8937 -1.86692 92.5757
lradius 41.8864
lwrist -4.36294
lhand -3.8078 -24.6408
lfingers 7.12502
lthumb 21.9385 4.13522
rfemur 0 0 0
rtibia 0
rfoot 0 0
rtoes 0
lfemur -1.517 -5.38717 -13.6093
ltibia 21.0246
lfoot -24.4237 17.1915
ltoes -54.6579
677
root -0.644203 18.657 5.57341 -0.261138 -2.66777 -1.28508
lowerback 1.46469 1.42211 0.00605183
upperback -1.2671 1.90235 0.264943
thorax -2.1279 0.951837 0.205431
lowerneck -10.8895 -2.70573 -1.75582
upperneck 25.4867 -4.12789 2.54276
head 9.96977 -1.79591 0.704508
rclavicle -3.37313e-015 4.96962e-015
rhumerus -47.4921 -3.73105 -87.1751
rradius 43.875
rwrist 16.0914
rhand -10.7353 -29.2615
rfingers 7.12502
rthumb 15.2755 -58.6775
lclavicle -3.37313e-015 4.96962e-015
lhumerus -40.7627 -1.68727 92.5311
lradius 41.1177
lwrist -5.05167
lhand -3.54252 -24.2301
lfingers 7.12502
lthumb 22.1932 4.51591
rfemur 0 0 0
rtibia 0
rfoot 0 0
rtoes 0
lfemur -1.60441 -5.44494 -13.4952
ltibia 20.9984
lfoot -24.4797 17.241
ltoes -54.6316
678
root -0.643382 18.658 5.57998 -0.130733 -2.67508 -1.33378
lowerback 1.25225 1.42064 0.086242
upperback -1.27882 1.90184 0.268332
thorax -2.01807 0.950559 0.169764
lowerneck -10.91 -2.69703 -1.81743
upperneck 25.4846 -4.12066 2.61409
head 9.97587 -1.7902 0.740508
rclavicle -1.54431e-014 5.96354e-015
rhumerus -47.3179 -3.60244 -87.2374
rradius 43.3022
rwrist 16.8557
rhand -10.5313 -29.422
rfingers 7.12502
rthumb 15.4719 -58.8229
lclavicle -1.54431e-014 5.96354e-015
lhumerus -40.5672 -1.37605 92.3838
lradius 40.2393
lwrist -5.90221
lhand -2.95361 -23.5337
lfingers 7.12502
lthumb 22.7585 5.14394
rfemur 0 0 0
rtibia 0
rfoot 0 0
rtoes 0
lfemur -1.70989 -5.52147 -13.448
ltibia 20.9926
lfoot -24.5642 17.279
ltoes -54.5804
679
root -0.642209 18.6593 5.58636 -0.0386336 -2.70831 -1.32395
lowerback 1.08431 1.42578 0.102434
upperback -1.27637 1.90832 0.256938
thorax -1.92032 0.953602 0.153556
lowerneck -10.9199 -2.67656 -1.85761
upperneck 25.4652 -4.09822 2.67549
head 9.97254 -1.77679 0.771376
rclavicle -1.56978e-014 9.0447e-015
rhumerus -47.1338 -3.57487 -87.2028
rradius 42.8738
rwrist 18.4283
rhand -9.1864 -30.3681
rfingers 7.12502
rthumb 16.767 -59.6641
lclavicle -1.56978e-014 9.0447e-015
lhumerus -40.369 -0.958077 92.1744
lradius 39.3532
lwrist -6.80349
lhand -2.64393 -23.4299
lfingers 7.12502
lthumb 23.0557 5.21088
rfemur 0 0 0
rtibia 0
rfoot 0 0
rtoes 0
lfemur -1.77136 -5.65552 -13.4837
ltibia 20.9895
lfoot -24.6486 17.3973
ltoes -54.539
680
root -0.641385 18.6603 5.59317 0.0253947 -2.73364 -1.34361
lowerback 0.952828 1.43332 0.135484
upperback -1.27805 1.91866 0.260371
thorax -1.84726 0.958432 0.141953
lowerneck -10.8875 -2.65839 -1.83568
upperneck 25.414 -4.06291 2.6272
head 9.94523 -1.76461 0.755432
rclavicle -2.06736e-014 -3.37934e-015
rhumerus -47.0289 -3.25865 -87.449
rradius 42.1373
rwrist 17.6714
rhand -11.4117 -29.7924
rfingers 7.12502
rthumb 14.6239 -59.2567
lclavicle -2.06736e-014 -3.37934e-015
lhumerus -40.2879 -0.509141 91.9653
lradius 38.6014
lwrist -7.62857
lhand -2.7431 -23.7826
lfingers 7.12502
lthumb 22.9605 4.87004
rfemur 0 0 0
rtibia 0
rfoot 0 0
rtoes 0
lfemur -1.78838 -5.71223 -13.4748
ltibia 20.955
lfoot -24.6654 17.4916
ltoes -54.5594
681
root -0.640928 18.6603 5.59853 0.0829805 -2.74099 -1.29939
lowerback 0.855704 1.43774 0.103378
upperback -1.29231 1.9234 0.240435
thorax -1.80774 0.961156 0.141857
lowerneck -10.8552 -2.63728 -1.78214
upperneck 25.382 -4.02343 2.55036
head 9.92348 -1.75049 0.724633
rclavicle -1.80086e-014 8.94531e-015
rhumerus -46.9894 -3.14177 -87.4642
rradius 41.6402
rwrist 18.3216
rhand -11.2421 -29.3869
rfingers 7.12502
rthumb 14.7873 -58.8394
lclavicle -1.80086e-014 8.94531e-015
lhumerus -40.2722 -0.0616712 91.7346
lradius 37.9163
lwrist -8.33285
lhand -2.85372 -24.102
lfingers 7.12502
lthumb 22.8543 4.56379
rfemur 0 0 0
rtibia 0
rfoot 0 0
rtoes 0
lfemur -1.80102 -5.72044 -13.5223
ltibia 20.906
lfoot -24.7148 17.4827
ltoes -54.5081
682
root -0.640135 18.6604 5.60296 0.133265 -2.74215 -1.18607
lowerback 0.800713 1.4264 -0.000541675
upperback -1.30355 1.90573 0.198104
thorax -1.79029 0.953466 0.158395
lowerneck -10.8989 -2.61292 -1.75588
upperneck 25.4064 -3.99507 2.55045
head 9.93936 -1.7342 0.722962
rclavicle -3.27995e-015 7.05686e-015
rhumerus -46.9432 -3.24091 -87.2206
rradius 41.3538
rwrist 20.3654
rhand -8.80748 -29.3246
rfingers 7.12502
rthumb 17.1317 -58.5893
lclavicle -3.27995e-015 7.05686e-015
lhumerus -40.2724 0.415293 91.4544
lradius 37.2763
lwrist -9.09531
lhand -3.04386 -24.4447
lfingers 7.12502
lthumb 22.6719 4.24358
rfemur 0 0 0
rtibia 0
rfoot 0 0
rtoes 0
lfemur -1.81117 -5.79654 -13.6616
ltibia 20.8565
lfoot -24.8055 17.5127
ltoes -54.4129
